# xmcd
#
# Track frame offsets: 
#        150
#        14455
#        30455
#        46175
#        64375
#        81358
#        98023
#        120325
#        142090
#        157538
#        172910
#        193655
#        206970
#        233548
#
# Disc length: 3417 seconds
#
# Revision: 2
# Processed by: cddbd v1.5.2PL0 Copyright (c) Steve Scherf et al.
# Submitted via: ExactAudioCopy v1.3
#
DISCID=ae0d570e
DTITLE=Lou Reed - New York (Japan WPCR-75158)
DYEAR=2006
DGENRE=Rock
TTITLE0=Romeo Had Juliette
TTITLE1=Halloween Parade
TTITLE2=Dirty Blvd.
TTITLE3=Endless Cycle
TTITLE4=There Is No Time
TTITLE5=Last Great American Whale
TTITLE6=Beginning Of A Great Adventure
TTITLE7=Busload Of Faith
TTITLE8=Sick Of You
TTITLE9=Hold On
TTITLE10=Good Evening Mr. Waldheim
TTITLE11=Xmas In February
TTITLE12=Strawman
TTITLE13=Dime Store Mystery
EXTD=YEAR: 1989
EXTT0=
EXTT1=
EXTT2=
EXTT3=
EXTT4=
EXTT5=
EXTT6=
EXTT7=
EXTT8=
EXTT9=
EXTT10=
EXTT11=
EXTT12=
EXTT13=
PLAYORDER=
